<?xml version="1.0" encoding="UTF-8" standalone="no"?>
<!DOCTYPE svg PUBLIC "-//W3C//DTD SVG 1.1//EN"
 "http://www.w3.org/Graphics/SVG/1.1/DTD/svg11.dtd">
<!-- Generated by graphviz version 6.0.1 (20220911.1526)
 -->
<!-- Pages: 1 -->
<svg width="405pt" height="276pt"
 viewBox="0.00 0.00 405.00 276.00" xmlns="http://www.w3.org/2000/svg" xmlns:xlink="http://www.w3.org/1999/xlink">
<g id="graph0" class="graph" transform="scale(1 1) rotate(0) translate(4 272)">
<polygon fill="white" stroke="none" points="-4,4 -4,-272 401,-272 401,4 -4,4"/>
<!-- 
 -->
<g id="node1" class="node">
<title>
</title>
<path fill="none" stroke="white" d="M362,-216.73C362,-218.53 349.9,-220 335,-220 320.1,-220 308,-218.53 308,-216.73 308,-216.73 308,-187.27 308,-187.27 308,-185.47 320.1,-184 335,-184 349.9,-184 362,-185.47 362,-187.27 362,-187.27 362,-216.73 362,-216.73"/>
<path fill="none" stroke="white" d="M362,-216.73C362,-214.92 349.9,-213.45 335,-213.45 320.1,-213.45 308,-214.92 308,-216.73"/>
</g>
<!-- query1 -->
<g id="node2" class="node">
<title>query1</title>
<polygon fill="none" stroke="black" points="212.5,-187 163.5,-187 163.5,-151 218.5,-151 218.5,-181 212.5,-187"/>
<polyline fill="none" stroke="black" points="212.5,-187 212.5,-181"/>
<polyline fill="none" stroke="black" points="218.5,-181 212.5,-181"/>
<text text-anchor="middle" x="191" y="-165.3" font-family="Times New Roman,serif" font-size="14.00">query1</text>
</g>
<!-- query1&#45;&gt;
 -->
<g id="edge1" class="edge">
<title>query1&#45;&gt;
</title>
<path fill="none" stroke="#e7298a" d="M218.71,-175.21C241.06,-180.4 273.17,-187.86 297.83,-193.59"/>
<polygon fill="#e7298a" stroke="#e7298a" points="297.36,-197.08 307.89,-195.93 298.94,-190.26 297.36,-197.08"/>
</g>
<!-- page_vote
 ページボート -->
<g id="node6" class="node">
<title>page_vote
 ページボート</title>
<path fill="none" stroke="black" d="M397,-161.48C397,-164.11 369.21,-166.25 335,-166.25 300.79,-166.25 273,-164.11 273,-161.48 273,-161.48 273,-118.52 273,-118.52 273,-115.89 300.79,-113.75 335,-113.75 369.21,-113.75 397,-115.89 397,-118.52 397,-118.52 397,-161.48 397,-161.48"/>
<path fill="none" stroke="black" d="M397,-161.48C397,-158.84 369.21,-156.7 335,-156.7 300.79,-156.7 273,-158.84 273,-161.48"/>
<text text-anchor="middle" x="335" y="-143.8" font-family="Times New Roman,serif" font-size="14.00">page_vote</text>
<text text-anchor="middle" x="335" y="-128.8" font-family="Times New Roman,serif" font-size="14.00"> ページボート</text>
</g>
<!-- query1&#45;&gt;page_vote
 ページボート -->
<g id="edge5" class="edge">
<title>query1&#45;&gt;page_vote
 ページボート</title>
<path fill="none" stroke="#e6ab02" d="M218.71,-163.55C231.42,-160.95 247.28,-157.71 263.13,-154.47"/>
<polygon fill="#e6ab02" stroke="#e6ab02" points="263.87,-157.89 272.97,-152.46 262.47,-151.04 263.87,-157.89"/>
</g>
<!-- table3
 テーブル3 -->
<g id="node3" class="node">
<title>table3
 テーブル3</title>
<path fill="none" stroke="black" d="M102.5,-101.48C102.5,-104.11 80.99,-106.25 54.5,-106.25 28.01,-106.25 6.5,-104.11 6.5,-101.48 6.5,-101.48 6.5,-58.52 6.5,-58.52 6.5,-55.89 28.01,-53.75 54.5,-53.75 80.99,-53.75 102.5,-55.89 102.5,-58.52 102.5,-58.52 102.5,-101.48 102.5,-101.48"/>
<path fill="none" stroke="black" d="M102.5,-101.48C102.5,-98.84 80.99,-96.7 54.5,-96.7 28.01,-96.7 6.5,-98.84 6.5,-101.48"/>
<text text-anchor="middle" x="54.5" y="-83.8" font-family="Times New Roman,serif" font-size="14.00">table3</text>
<text text-anchor="middle" x="54.5" y="-68.8" font-family="Times New Roman,serif" font-size="14.00"> テーブル3</text>
</g>
<!-- table3
 テーブル3&#45;&gt;query1 -->
<g id="edge2" class="edge">
<title>table3
 テーブル3&#45;&gt;query1</title>
<path fill="none" stroke="#e7298a" d="M93.81,-105.01C98.92,-108.36 104.09,-111.76 109,-115 124.07,-124.95 140.66,-136 154.89,-145.5"/>
<polygon fill="#e7298a" stroke="#e7298a" points="153.15,-148.54 163.41,-151.19 157.04,-142.72 153.15,-148.54"/>
</g>
<!-- sample&#45;query -->
<g id="node9" class="node">
<title>sample&#45;query</title>
<polygon fill="none" stroke="black" points="231,-67 145,-67 145,-31 237,-31 237,-61 231,-67"/>
<polyline fill="none" stroke="black" points="231,-67 231,-61"/>
<polyline fill="none" stroke="black" points="237,-61 231,-61"/>
<text text-anchor="middle" x="191" y="-45.3" font-family="Times New Roman,serif" font-size="14.00">sample&#45;query</text>
</g>
<!-- table3
 テーブル3&#45;&gt;sample&#45;query -->
<g id="edge8" class="edge">
<title>table3
 テーブル3&#45;&gt;sample&#45;query</title>
<path fill="none" stroke="#e6ab02" d="M102.54,-69.16C112.87,-66.78 123.91,-64.23 134.54,-61.78"/>
<polygon fill="#e6ab02" stroke="#e6ab02" points="135.61,-65.13 144.57,-59.47 134.04,-58.31 135.61,-65.13"/>
</g>
<!-- table4 -->
<g id="node4" class="node">
<title>table4</title>
<path fill="none" stroke="black" d="M81.5,-264.73C81.5,-266.53 69.4,-268 54.5,-268 39.6,-268 27.5,-266.53 27.5,-264.73 27.5,-264.73 27.5,-235.27 27.5,-235.27 27.5,-233.47 39.6,-232 54.5,-232 69.4,-232 81.5,-233.47 81.5,-235.27 81.5,-235.27 81.5,-264.73 81.5,-264.73"/>
<path fill="none" stroke="black" d="M81.5,-264.73C81.5,-262.92 69.4,-261.45 54.5,-261.45 39.6,-261.45 27.5,-262.92 27.5,-264.73"/>
<text text-anchor="middle" x="54.5" y="-246.3" font-family="Times New Roman,serif" font-size="14.00">table4</text>
</g>
<!-- table4&#45;&gt;query1 -->
<g id="edge3" class="edge">
<title>table4&#45;&gt;query1</title>
<path fill="none" stroke="#e7298a" d="M81.69,-237.57C90.49,-233.19 100.28,-228.08 109,-223 124.84,-213.77 141.8,-202.66 156.09,-192.93"/>
<polygon fill="#e7298a" stroke="#e7298a" points="158.35,-195.63 164.61,-187.08 154.38,-189.86 158.35,-195.63"/>
</g>
<!-- database2.table2
 -->
<g id="node5" class="node">
<title>database2.table2
</title>
<path fill="none" stroke="black" d="M109,-210.73C109,-212.53 84.57,-214 54.5,-214 24.43,-214 0,-212.53 0,-210.73 0,-210.73 0,-181.27 0,-181.27 0,-179.47 24.43,-178 54.5,-178 84.57,-178 109,-179.47 109,-181.27 109,-181.27 109,-210.73 109,-210.73"/>
<path fill="none" stroke="black" d="M109,-210.73C109,-208.92 84.57,-207.45 54.5,-207.45 24.43,-207.45 0,-208.92 0,-210.73"/>
<text text-anchor="middle" x="54.5" y="-192.3" font-family="Times New Roman,serif" font-size="14.00">database2.table2</text>
</g>
<!-- database2.table2
&#45;&gt;query1 -->
<g id="edge4" class="edge">
<title>database2.table2
&#45;&gt;query1</title>
<path fill="none" stroke="#e7298a" d="M109.04,-185.25C123.87,-182.27 139.63,-179.11 153.26,-176.38"/>
<polygon fill="#e7298a" stroke="#e7298a" points="154.11,-179.78 163.22,-174.38 152.73,-172.91 154.11,-179.78"/>
</g>
<!-- table2 -->
<g id="node7" class="node">
<title>table2</title>
<path fill="none" stroke="black" d="M81.5,-156.73C81.5,-158.53 69.4,-160 54.5,-160 39.6,-160 27.5,-158.53 27.5,-156.73 27.5,-156.73 27.5,-127.27 27.5,-127.27 27.5,-125.47 39.6,-124 54.5,-124 69.4,-124 81.5,-125.47 81.5,-127.27 81.5,-127.27 81.5,-156.73 81.5,-156.73"/>
<path fill="none" stroke="black" d="M81.5,-156.73C81.5,-154.92 69.4,-153.45 54.5,-153.45 39.6,-153.45 27.5,-154.92 27.5,-156.73"/>
<text text-anchor="middle" x="54.5" y="-138.3" font-family="Times New Roman,serif" font-size="14.00">table2</text>
</g>
<!-- table2&#45;&gt;query1 -->
<g id="edge6" class="edge">
<title>table2&#45;&gt;query1</title>
<path fill="none" stroke="#e6ab02" d="M81.75,-147.27C102.17,-151.37 130.74,-157.1 153.41,-161.65"/>
<polygon fill="#e6ab02" stroke="#e6ab02" points="152.86,-165.11 163.35,-163.65 154.24,-158.25 152.86,-165.11"/>
</g>
<!-- tableB -->
<g id="node8" class="node">
<title>tableB</title>
<path fill="none" stroke="black" d="M362,-63.73C362,-65.53 349.9,-67 335,-67 320.1,-67 308,-65.53 308,-63.73 308,-63.73 308,-34.27 308,-34.27 308,-32.47 320.1,-31 335,-31 349.9,-31 362,-32.47 362,-34.27 362,-34.27 362,-63.73 362,-63.73"/>
<path fill="none" stroke="black" d="M362,-63.73C362,-61.92 349.9,-60.45 335,-60.45 320.1,-60.45 308,-61.92 308,-63.73"/>
<text text-anchor="middle" x="335" y="-45.3" font-family="Times New Roman,serif" font-size="14.00">tableB</text>
</g>
<!-- sample&#45;query&#45;&gt;tableB -->
<g id="edge7" class="edge">
<title>sample&#45;query&#45;&gt;tableB</title>
<path fill="none" stroke="#e6ab02" d="M237.32,-49C256.82,-49 279.3,-49 297.67,-49"/>
<polygon fill="#e6ab02" stroke="#e6ab02" points="297.69,-52.5 307.69,-49 297.69,-45.5 297.69,-52.5"/>
</g>
<!-- tableXX -->
<g id="node10" class="node">
<title>tableXX</title>
<path fill="none" stroke="black" d="M85.5,-32.73C85.5,-34.53 71.61,-36 54.5,-36 37.39,-36 23.5,-34.53 23.5,-32.73 23.5,-32.73 23.5,-3.27 23.5,-3.27 23.5,-1.47 37.39,0 54.5,0 71.61,0 85.5,-1.47 85.5,-3.27 85.5,-3.27 85.5,-32.73 85.5,-32.73"/>
<path fill="none" stroke="black" d="M85.5,-32.73C85.5,-30.92 71.61,-29.45 54.5,-29.45 37.39,-29.45 23.5,-30.92 23.5,-32.73"/>
<text text-anchor="middle" x="54.5" y="-14.3" font-family="Times New Roman,serif" font-size="14.00">tableXX</text>
</g>
<!-- tableXX&#45;&gt;sample&#45;query -->
<g id="edge9" class="edge">
<title>tableXX&#45;&gt;sample&#45;query</title>
<path fill="none" stroke="#e6ab02" d="M85.68,-24.96C100.25,-28.31 118.19,-32.45 135.07,-36.34"/>
<polygon fill="#e6ab02" stroke="#e6ab02" points="134.31,-39.76 144.84,-38.59 135.88,-32.94 134.31,-39.76"/>
</g>
</g>
</svg>
